<?xml version="1.0" encoding="utf-8"?>
<!-- Generator: Adobe Illustrator 23.0.3, SVG Export Plug-In . SVG Version: 6.00 Build 0)  -->
<svg version="1.1" id="Layer_1" xmlns="http://www.w3.org/2000/svg" xmlns:xlink="http://www.w3.org/1999/xlink" x="0px" y="0px"
	 viewBox="0 0 250 54" style="enable-background:new 0 0 250 54;" xml:space="preserve">
<style type="text/css">
	.st0{fill:#FFFFFF;}
</style>
<g>
	<path class="st0" d="M171.7,51.3c-0.2,0-0.3-0.1-0.3-0.3V3c0-0.2,0.1-0.3,0.3-0.3c0.2,0,0.3,0.1,0.3,0.3v48
		C172.1,51.2,171.9,51.3,171.7,51.3z"/>
	<g>
		<path class="st0" d="M4.1,17.7h3.2c0.3,0,0.6,0,1-0.1c0.2,0,0.3-0.2,0.4-0.4C9.9,11.6,15,7.2,21.2,7.2h0.7C21.9,6.5,22,5.8,22,5.1
			V2.8h-0.9C12.4,2.8,5.2,9.3,4.1,17.7z"/>
		<path class="st0" d="M18.5,46.5C12.7,45.2,8.4,40.1,8.4,34v-0.7c-0.7-0.1-1.4-0.2-2.1-0.2H4V34c0,8.7,6.5,15.9,14.9,17v-3.2
			c0-0.3,0-0.6-0.1-1C18.8,46.6,18.7,46.5,18.5,46.5z"/>
		<path class="st0" d="M48,36.3c-0.2,0-0.3,0.2-0.4,0.4c-1.2,5.7-6.3,10.1-12.5,10.1h-0.7c-0.1,0.7-0.2,1.4-0.2,2.1l0,0v2.3h0.9
			c8.7,0,15.9-6.5,17-14.9H49C48.6,36.2,48.3,36.3,48,36.3z"/>
		<path class="st0" d="M37.4,3v3.2c0,0.3,0,0.6,0.1,1c0,0.2,0.2,0.3,0.4,0.4c5.7,1.2,10.1,6.3,10.1,12.5v0.7
			c0.7,0.1,1.4,0.2,2.1,0.2h2.3V20C52.3,11.3,45.8,4.1,37.4,3z"/>
		<polygon class="st0" points="22,48.9 22,48.9 22,51.2 22,51.2 22,48.9 		"/>
		<polygon class="st0" points="34.3,51.2 34.3,51.2 34.3,48.9 34.3,48.9 34.3,48.9 		"/>
		<polygon class="st0" points="34.3,5.1 34.3,5.1 34.3,2.8 34.3,2.8 34.3,5.1 		"/>
		<polygon class="st0" points="22,2.8 22,2.8 22,5.1 22,5.1 22,5.1 		"/>
		<path class="st0" d="M23.8,39.8c-0.6-0.9-1.2-1.7-2-2.4l-4.1-4.1c-0.7-0.7-1.5-1.4-2.4-2c-2.6-1.8-5.8-2.8-9-2.8H4v4.5h2.3
			c3.1,0,6,1.2,8.2,3.4l4.1,4.1c2.2,2.2,3.4,5.1,3.4,8.2v2.3h4.5v-2.3C26.5,45.6,25.5,42.5,23.8,39.8z"/>
		<path class="st0" d="M25.4,17.5c-0.4,0.5-0.8,1-1.3,1.4l-4.1,4.1c-0.5,0.5-0.9,0.9-1.4,1.3c-1.4,1.1-2.9,2-4.5,2.8
			c-2.4,1.1-5.1,1.7-7.9,1.7l0,0c3.3,0,6.4,1,9,2.8c1.1-0.5,2.3-1,3.3-1.7c1.3-0.8,2.5-1.7,3.7-2.8c0.3-0.3,0.6-0.6,0.9-0.9l4.1-4.1
			c0.3-0.3,0.6-0.6,0.9-0.9C27.1,20,26.2,18.8,25.4,17.5z"/>
		<path class="st0" d="M22,2.8v2.3c0,3.1-1.2,6-3.4,8.2l-4.1,4.1c-2.2,2.2-5.1,3.4-8.2,3.4H4v4.5h2.3c3.3,0,6.4-1,9-2.8
			c0.9-0.6,1.7-1.2,2.4-2l4.1-4.1c0.7-0.7,1.4-1.5,2-2.4c1.8-2.6,2.8-5.8,2.8-9V2.8H22z"/>
		<path class="st0" d="M36.3,22.9l-4.1-4.1c-0.5-0.5-0.9-0.9-1.3-1.4c-1.1-1.4-2-2.9-2.8-4.5c-1.1-2.4-1.7-5.1-1.7-7.9l0,0
			c0,3.3-1,6.4-2.8,9l0,0c0.5,1.1,1,2.3,1.7,3.3c0.8,1.3,1.7,2.5,2.8,3.7c0.3,0.3,0.6,0.6,0.9,0.9l4.1,4.1c0.3,0.3,0.6,0.6,0.9,0.9
			c1.2-1,2.4-2,3.7-2.8C37.2,23.8,36.7,23.4,36.3,22.9z"/>
		<path class="st0" d="M50,20.8c-3.1,0-6-1.2-8.2-3.4l-4.1-4.1c-2.2-2.2-3.4-5.1-3.4-8.2V2.8h-4.5v2.3c0,3.3,1,6.4,2.8,9
			c0.6,0.9,1.2,1.7,2,2.4l4.1,4.1c0.7,0.7,1.5,1.4,2.4,2c2.6,1.8,5.8,2.8,9,2.8h2.3v-4.5l0,0l0,0H50z"/>
		<path class="st0" d="M50,25.3c-3.3,0-6.4-1-9-2.8c-1.1,0.5-2.3,1-3.3,1.7C36.4,25,35.2,25.9,34,27c-0.3,0.3-0.6,0.6-0.9,0.9
			L29,31.9c-0.3,0.3-0.6,0.6-0.9,0.9c1,1.2,2,2.4,2.8,3.7c0.4-0.5,0.8-1,1.3-1.4l4.1-4.1c0.5-0.5,0.9-0.9,1.4-1.3
			c1.4-1.1,2.9-2,4.5-2.8C44.6,25.9,47.3,25.3,50,25.3L50,25.3z"/>
		<path class="st0" d="M50,28.6c-3.3,0-6.4,1-9,2.8c-0.9,0.6-1.7,1.2-2.4,2l-4.1,4.1c-0.7,0.7-1.4,1.5-2,2.4l0,0
			c-1.8,2.6-2.8,5.8-2.8,9v2.3h4.5v-2.3l0,0c0-3.1,1.2-6,3.4-8.2l4.1-4.1c2.2-2.2,5.1-3.4,8.2-3.4h2.3v-4.5H50z"/>
		<path class="st0" d="M30.9,36.5c-0.8-1.3-1.7-2.5-2.8-3.7c-0.3-0.3-0.6-0.6-0.9-0.9l-4.1-4.1c-0.3-0.3-0.6-0.6-0.9-0.9
			c-1.2,1-2.4,2-3.7,2.8c0.5,0.4,1,0.8,1.4,1.3l4.1,4.1c0.5,0.5,0.9,0.9,1.3,1.4c1.1,1.4,2,2.9,2.8,4.5c1.1,2.4,1.7,5.1,1.7,7.9
			c0-3.3,1-6.4,2.8-9l0,0C32.1,38.7,31.6,37.6,30.9,36.5z"/>
	</g>
	<path class="st0" d="M141.8,21.1c0.4,0,0.8-0.2,0.9-0.6l0.8-2.1c0.1-0.2,0-0.3-0.2-0.3h-5.1c-0.4,0-0.8,0.2-1,0.7l-0.7,2
		c-0.1,0.2,0,0.3,0.2,0.3H141.8z M77.8,18.5h-3.6c-0.7,0-1.1,0.2-1.4,0.9l-3,6.3l-2.9-6.3c-0.3-0.6-0.8-0.9-1.5-0.9H62
		c-0.4,0-0.5,0.2-0.3,0.6l5.7,11.2v6.3c0,0.3,0.1,0.4,0.4,0.4h4c0.3,0,0.4-0.2,0.4-0.4v-6.2L78.1,19C78.3,18.6,78.2,18.5,77.8,18.5z
		 M90.4,22.9h-3c-0.6,0-1,0.4-1,1v9.4h-1.7c-1.1,0-1.7-0.1-2.1-0.5c-0.3-0.5-0.4-1.4-0.4-3.1v-6.4c0-0.3-0.1-0.4-0.4-0.4H79
		c-0.6,0-1.1,0.5-1.1,1.1V31c0,2.6,0.2,4,1.2,4.9c1,0.9,2.3,1.2,4.9,1.2c2.7,0,4.8-0.1,6.3-0.4c0.3-0.1,0.3-0.1,0.3-0.4V23.3
		C90.7,23,90.6,22.9,90.4,22.9z M103.9,23.1c-1.1-0.2-2.1-0.3-3.9-0.3c-3.4,0.1-5,0.4-5.9,2.2c-0.5,1.2-0.7,2.6-0.7,5v0
		c0,2.4,0.2,3.8,0.7,5c0.9,1.8,2.5,2.1,5.9,2.2c1.7,0,2.8-0.1,3.9-0.3c0.5-0.1,0.8-0.5,0.8-1.1v-1.9c0-0.3-0.1-0.4-0.4-0.4H100
		c-0.9,0-1.5-0.2-1.8-0.7c-0.3-0.4-0.4-1.3-0.4-2.7h0c0,0,0,0,0-0.1c0,0,0,0,0-0.1h0c0-1.4,0.2-2.3,0.4-2.7c0.3-0.4,0.9-0.7,1.8-0.7
		h4.2c0.3,0,0.4-0.1,0.4-0.4v-1.9C104.7,23.6,104.4,23.2,103.9,23.1z M160.5,23.9c-1-0.9-2.3-1.2-4.9-1.2c-3,0-5.1,0.1-6.4,0.4
		c-0.2,0.1-0.3,0.1-0.3,0.4v13c0,0.3,0.1,0.4,0.3,0.4h3.6c0.2,0,0.4-0.1,0.4-0.4V26.5h1.7c1.2,0,1.6,0,2,0.5
		c0.4,0.6,0.4,1.2,0.4,3.1v6.4c0,0.3,0.1,0.4,0.3,0.4h3.6c0.2,0,0.4-0.1,0.4-0.4v-7.8C161.7,26.2,161.5,24.8,160.5,23.9z
		 M139.4,22.7c-1.6,0-3.1,0.1-4.3,0.3c-0.6,0.1-0.8,0.4-0.8,1.1v1.9c0,0.2,0.1,0.4,0.3,0.4h4.9c1.3,0,1.9,0.5,1.9,1.5v0.5l-2.7,0
		c-1.9,0-3.3,0.3-4.1,0.8c-0.8,0.5-1.3,1.7-1.3,3.3c0.1,2.5,0.7,3.6,2.3,4.1c0.6,0.1,1.1,0.2,1.7,0.3c0.5,0,1.3,0.1,2.2,0.1
		c2.1,0,4-0.2,5.7-0.5c0.4-0.1,0.6-0.4,0.6-0.8v-8.5C145.7,24.5,144.9,22.8,139.4,22.7z M141.3,33.4c-0.5,0.1-1.2,0.2-2.1,0.2
		c-1.4,0-1.8-0.3-1.8-1.3c0-0.9,0.4-1.3,1.6-1.3h2.3V33.4z M113,22.7c-1.6,0-3.1,0.1-4.3,0.3c-0.6,0.1-0.8,0.4-0.8,1.1v1.9
		c0,0.2,0.1,0.4,0.3,0.4h4.9c1.3,0,1.9,0.5,1.9,1.5v0.5l-2.7,0c-1.9,0-3.3,0.3-4.1,0.8c-0.8,0.5-1.3,1.7-1.3,3.3
		c0.1,2.5,0.7,3.6,2.3,4.1c0.6,0.1,1.1,0.2,1.7,0.3c0.5,0,1.3,0.1,2.2,0.1c2.1,0,4-0.2,5.7-0.5c0.4-0.1,0.6-0.4,0.6-0.8v-8.5
		C119.3,24.5,118.5,22.8,113,22.7z M114.9,33.4c-0.5,0.1-1.2,0.2-2.1,0.2c-1.4,0-1.8-0.3-1.8-1.3c0-0.9,0.4-1.3,1.6-1.3h2.3V33.4z
		 M130.3,33.2h-1c-1.1,0-1.5-0.2-1.5-1.3v-6.2h2.2c0.3,0,0.4-0.1,0.4-0.4v-2.5c0-0.3-0.2-0.4-0.4-0.4h-2.2v-3.3
		c0-0.3-0.2-0.4-0.4-0.4l-2.8,0c-0.7,0-1.3,0.3-1.3,1.3v2.5h-1.5c-0.3,0-0.4,0.1-0.4,0.4v2.5c0,0.3,0.2,0.4,0.4,0.4h1.5v7.8
		c0,1.6,0.4,2.6,1.3,3.1c0.5,0.2,0.9,0.3,1.3,0.4c0.4,0.1,1,0.1,1.8,0.1c0.7,0,1.5-0.1,2.6-0.3c0.3-0.1,0.4-0.2,0.4-0.5v-2.7
		C130.8,33.3,130.6,33.2,130.3,33.2z"/>
	<g>
		<path class="st0" d="M66.9,8.5c0.1,0,0.1,0,0.1,0.1v3.4c0,1.4-0.2,2.3-0.6,2.8c-0.4,0.5-1.2,0.7-2.4,0.7c-0.5,0-1,0-1.5-0.1
			c-0.1,0-0.2-0.1-0.2-0.2v-0.8c0-0.1,0-0.1,0.1-0.1H64c0.6,0,1.1-0.1,1.3-0.5c0.2-0.3,0.3-0.9,0.3-1.8l0-3.4c0-0.1,0-0.1,0.1-0.1
			H66.9z"/>
		<path class="st0" d="M72.6,10.4c0.1,0,0.1,0,0.1,0.1v4.8c0,0.1,0,0.1-0.1,0.2c-0.5,0.1-1.3,0.2-2.2,0.2c-0.9,0-1.4-0.1-1.8-0.4
			c-0.4-0.3-0.5-0.9-0.5-1.8v-2.9c0-0.1,0-0.1,0.1-0.1h1.1c0.1,0,0.1,0,0.1,0.1V13c0,0.5,0,0.8,0.1,1c0.1,0.4,0.3,0.4,0.9,0.4h0.8
			v-3.9c0-0.1,0-0.1,0.1-0.1H72.6z"/>
		<path class="st0" d="M78,10.7c0.4,0.3,0.5,0.9,0.5,1.8v2.9c0,0.1,0,0.1-0.1,0.1h-1.1c-0.1,0-0.1,0-0.1-0.1v-2.5c0-0.7,0-1-0.2-1.2
			c-0.2-0.2-0.3-0.2-0.8-0.2h-0.8v3.9c0,0.1,0,0.1-0.1,0.1H74c-0.1,0-0.1,0-0.1-0.1v-4.8c0-0.1,0-0.1,0.1-0.1
			c0.5-0.1,1.2-0.2,2.2-0.2C77.2,10.3,77.7,10.4,78,10.7z"/>
		<path class="st0" d="M81.1,8.9c0.1,0,0.1,0,0.1,0.1v1.3h0.9c0.1,0,0.2,0,0.2,0.1v0.7c0,0.1-0.1,0.1-0.2,0.1h-0.9V14
			c0,0.4,0.1,0.5,0.6,0.5h0.4c0.1,0,0.2,0,0.2,0.1v0.8c0,0.1,0,0.2-0.1,0.2c-0.3,0.1-0.5,0.1-0.8,0.1c-0.4,0-0.6,0-0.9-0.1
			c-0.4-0.1-0.6-0.4-0.7-1.1v-3h-0.6c-0.1,0-0.1,0-0.1-0.1v-0.7c0-0.1,0-0.1,0.1-0.1h0.6v-1c0-0.1,0-0.1,0.1-0.1L81.1,8.9z"/>
		<path class="st0" d="M87.2,10.9c0.4,0.4,0.5,1,0.5,2.1c0,1.1-0.2,1.8-0.5,2.1c-0.3,0.3-1,0.5-1.9,0.5c-1,0-1.6-0.2-1.9-0.5
			c-0.3-0.4-0.5-1.1-0.5-2.1c0-1.1,0.2-1.8,0.5-2.1c0.3-0.4,1-0.5,1.9-0.5C86.3,10.3,86.8,10.4,87.2,10.9z M84.5,11.8
			c-0.1,0.2-0.2,0.6-0.2,1.2c0,0.6,0.1,1,0.2,1.2c0.1,0.2,0.4,0.3,0.8,0.3c0.4,0,0.7-0.1,0.8-0.3c0.1-0.2,0.2-0.6,0.2-1.2
			c0-0.6-0.1-1-0.2-1.2c-0.1-0.2-0.4-0.3-0.8-0.3C84.8,11.5,84.6,11.6,84.5,11.8z"/>
		<path class="st0" d="M92.1,10.4c0.1,0,0.1,0.1,0.1,0.1v0.7c0,0.1-0.1,0.1-0.2,0.1h-1.7c-0.4,0-0.5,0.1-0.5,0.3v0.1
			c0,0.2,0.1,0.3,0.4,0.4l1.2,0.4c0.7,0.3,1,0.7,1,1.4v0.1c0,1-0.7,1.4-2,1.4c-0.7,0-1.3,0-1.9-0.1c-0.1,0-0.2,0-0.2-0.1v-0.8
			c0-0.1,0.1-0.1,0.2-0.1h1.9c0.5,0,0.6-0.1,0.6-0.3v-0.1c0-0.2-0.1-0.3-0.5-0.4l-1.1-0.4c-0.6-0.2-0.9-0.7-0.9-1.4v-0.2
			c0-1,0.7-1.3,2.1-1.3C91.1,10.3,91.6,10.3,92.1,10.4z"/>
		<path class="st0" d="M96.5,8.9c0.1,0,0.1,0,0.1,0.1v1.3h0.9c0.1,0,0.2,0,0.2,0.1v0.7c0,0.1-0.1,0.1-0.2,0.1h-0.9V14
			c0,0.4,0.1,0.5,0.5,0.5h0.4c0.1,0,0.2,0,0.2,0.1v0.8c0,0.1,0,0.2-0.1,0.2c-0.3,0.1-0.5,0.1-0.8,0.1c-0.4,0-0.6,0-0.9-0.1
			c-0.4-0.1-0.6-0.4-0.7-1.1v-3h-0.5c-0.1,0-0.1,0-0.1-0.1v-0.7c0-0.1,0-0.1,0.1-0.1h0.5v-1c0-0.1,0-0.1,0.1-0.1L96.5,8.9z"/>
		<path class="st0" d="M101.4,10.4c0.1,0,0.1,0.1,0.1,0.2v0.8c0,0.1-0.1,0.1-0.2,0.1h-0.9c-0.5,0-0.7,0.1-0.7,0.5v3.4
			c0,0.1,0,0.1-0.1,0.1h-1.1c-0.1,0-0.1,0-0.1-0.1v-3.8c0-0.4,0.1-0.8,0.3-1c0.3-0.3,0.8-0.3,1.3-0.3
			C100.7,10.3,101.1,10.3,101.4,10.4z"/>
		<path class="st0" d="M105.8,10.7c0.3,0.3,0.5,0.7,0.5,1.2v3.2c0,0.1-0.1,0.2-0.2,0.3c-0.6,0.1-1.3,0.2-2.1,0.2
			c-0.8,0-1.2,0-1.6-0.3c-0.4-0.2-0.6-0.6-0.6-1.4c0-0.6,0.2-1,0.5-1.2c0.3-0.2,0.8-0.3,1.5-0.3h1.2v-0.3c0-0.4-0.3-0.6-0.9-0.6
			h-1.7c-0.1,0-0.1,0-0.1-0.1v-0.8c0-0.1,0-0.1,0.1-0.1c0.5-0.1,1-0.1,1.7-0.1C104.9,10.3,105.5,10.4,105.8,10.7z M104.9,13.4h-1.1
			c-0.5,0-0.7,0.1-0.7,0.6c0,0.4,0.2,0.6,0.8,0.6c0.4,0,0.7,0,0.9-0.1V13.4z"/>
		<path class="st0" d="M111.5,10.7c0.4,0.3,0.5,0.9,0.5,1.8v2.9c0,0.1,0,0.1-0.1,0.1h-1.1c-0.1,0-0.1,0-0.1-0.1v-2.5
			c0-0.7,0-1-0.2-1.2c-0.2-0.2-0.3-0.2-0.8-0.2h-0.8v3.9c0,0.1,0,0.1-0.1,0.1h-1.1c-0.1,0-0.1,0-0.1-0.1v-4.8c0-0.1,0-0.1,0.1-0.1
			c0.5-0.1,1.2-0.2,2.2-0.2C110.6,10.3,111.1,10.4,111.5,10.7z"/>
		<path class="st0" d="M116.5,10.4c0.1,0,0.1,0.1,0.1,0.1v0.7c0,0.1-0.1,0.1-0.2,0.1h-1.7c-0.4,0-0.5,0.1-0.5,0.3v0.1
			c0,0.2,0.1,0.3,0.4,0.4l1.2,0.4c0.7,0.3,1,0.7,1,1.4v0.1c0,1-0.7,1.4-2,1.4c-0.7,0-1.3,0-1.9-0.1c-0.1,0-0.2,0-0.2-0.1v-0.8
			c0-0.1,0.1-0.1,0.2-0.1h1.9c0.5,0,0.6-0.1,0.6-0.3v-0.1c0-0.2-0.1-0.3-0.5-0.4l-1.1-0.4c-0.6-0.2-0.9-0.7-0.9-1.4v-0.2
			c0-1,0.7-1.3,2.1-1.3C115.5,10.3,116,10.3,116.5,10.4z"/>
		<path class="st0" d="M120.8,8.4c0.1,0,0.1,0.1,0.1,0.2v0.8c0,0.1-0.1,0.1-0.2,0.1H120c-0.4,0-0.5,0.1-0.5,0.4v0.5h1.1
			c0.1,0,0.1,0.1,0.1,0.2l-0.1,0.8c0,0.1-0.1,0.1-0.2,0.1h-0.9v4c0,0.1,0,0.1-0.1,0.1h-1.1c-0.1,0-0.1,0-0.1-0.1v-4h-0.6
			c-0.1,0-0.2,0-0.2-0.1v-0.8c0-0.1,0.1-0.1,0.2-0.1h0.6V9.6c0-0.6,0.2-0.9,0.5-1.1c0.3-0.2,0.6-0.2,1.1-0.2
			C120.1,8.3,120.4,8.3,120.8,8.4z"/>
		<path class="st0" d="M125.3,10.9c0.4,0.4,0.5,1,0.5,2.1c0,1.1-0.2,1.8-0.5,2.1c-0.3,0.3-1,0.5-1.9,0.5s-1.6-0.2-1.9-0.5
			c-0.3-0.4-0.5-1.1-0.5-2.1c0-1.1,0.2-1.8,0.5-2.1c0.3-0.4,1-0.5,1.9-0.5C124.4,10.3,124.9,10.4,125.3,10.9z M122.6,11.8
			c-0.1,0.2-0.2,0.6-0.2,1.2c0,0.6,0.1,1,0.2,1.2c0.1,0.2,0.4,0.3,0.8,0.3c0.4,0,0.7-0.1,0.8-0.3c0.1-0.2,0.2-0.6,0.2-1.2
			c0-0.6-0.1-1-0.2-1.2c-0.1-0.2-0.4-0.3-0.8-0.3C123,11.5,122.7,11.6,122.6,11.8z"/>
		<path class="st0" d="M129.6,10.4c0.1,0,0.1,0.1,0.1,0.2v0.8c0,0.1-0.1,0.1-0.2,0.1h-0.9c-0.5,0-0.7,0.1-0.7,0.5v3.4
			c0,0.1,0,0.1-0.1,0.1h-1.1c-0.1,0-0.1,0-0.1-0.1v-3.8c0-0.4,0.1-0.8,0.3-1c0.3-0.3,0.8-0.3,1.3-0.3
			C128.9,10.3,129.4,10.3,129.6,10.4z"/>
		<path class="st0" d="M137.2,10.7c0.3,0.3,0.4,0.8,0.4,1.6l0,3.1c0,0.1,0,0.1-0.1,0.1h-1.1c-0.1,0-0.1,0-0.1-0.1v-2.5
			c0-1.4-0.1-1.4-0.9-1.4c-0.3,0-0.5,0-0.8,0.1c0.1,0.2,0.1,0.6,0.1,1l0,2.9c0,0.1,0,0.1-0.1,0.1h-1.1c-0.1,0-0.1,0-0.1-0.1v-2.8
			c0-0.5,0-0.8-0.2-0.9c-0.2-0.1-0.3-0.2-0.7-0.2h-0.6v3.9c0,0.1,0,0.1-0.1,0.1h-1.1c-0.1,0-0.1,0-0.1-0.1v-4.8c0-0.1,0-0.1,0.1-0.1
			c0.5-0.1,1.1-0.2,1.8-0.2c0.7,0,1.3,0.1,1.7,0.3c0.5-0.2,1.1-0.3,1.6-0.3C136.4,10.3,136.9,10.4,137.2,10.7z"/>
		<path class="st0" d="M142.8,10.8c0.3,0.3,0.5,1,0.5,2.1v0.3c0,0.2-0.1,0.3-0.3,0.3H140c0,0.4,0.1,0.7,0.2,0.8
			c0.1,0.1,0.4,0.2,0.8,0.2h1.6c0.1,0,0.1,0,0.1,0.1v0.8c0,0.1,0,0.1-0.1,0.1c-0.4,0.1-1,0.1-1.8,0.1c-0.9,0-1.6-0.2-1.9-0.5
			c-0.3-0.4-0.5-1.1-0.5-2.1c0-1.1,0.2-1.8,0.5-2.1c0.3-0.4,0.9-0.5,1.9-0.5C141.9,10.3,142.5,10.5,142.8,10.8z M140,12.5h1.8
			c0-0.8-0.2-1-0.9-1C140.2,11.5,140,11.7,140,12.5z"/>
		<path class="st0" d="M150.8,10.7c0.3,0.3,0.4,0.8,0.4,1.6l0,3.1c0,0.1,0,0.1-0.1,0.1H150c-0.1,0-0.1,0-0.1-0.1v-2.5
			c0-1.4-0.1-1.4-0.9-1.4c-0.3,0-0.5,0-0.8,0.1c0.1,0.2,0.1,0.6,0.1,1l0,2.9c0,0.1,0,0.1-0.1,0.1h-1.1c-0.1,0-0.1,0-0.1-0.1v-2.8
			c0-0.5,0-0.8-0.2-0.9c-0.2-0.1-0.3-0.2-0.7-0.2h-0.6v3.9c0,0.1,0,0.1-0.1,0.1h-1.1c-0.1,0-0.1,0-0.1-0.1v-4.8c0-0.1,0-0.1,0.1-0.1
			c0.5-0.1,1.1-0.2,1.8-0.2c0.7,0,1.3,0.1,1.7,0.3c0.5-0.2,1.1-0.3,1.6-0.3C150,10.3,150.6,10.4,150.8,10.7z"/>
		<path class="st0" d="M156.5,10.9c0.4,0.4,0.5,1,0.5,2.1c0,1.1-0.2,1.8-0.5,2.1c-0.3,0.3-1,0.5-1.9,0.5c-1,0-1.6-0.2-1.9-0.5
			c-0.3-0.4-0.5-1.1-0.5-2.1c0-1.1,0.2-1.8,0.5-2.1c0.3-0.4,1-0.5,1.9-0.5C155.6,10.3,156.1,10.4,156.5,10.9z M153.8,11.8
			c-0.1,0.2-0.2,0.6-0.2,1.2c0,0.6,0.1,1,0.2,1.2c0.1,0.2,0.4,0.3,0.8,0.3c0.4,0,0.7-0.1,0.8-0.3c0.1-0.2,0.2-0.6,0.2-1.2
			c0-0.6-0.1-1-0.2-1.2c-0.1-0.2-0.4-0.3-0.8-0.3C154.2,11.5,153.9,11.6,153.8,11.8z"/>
		<path class="st0" d="M161.4,10.4c0.1,0,0.1,0.1,0.1,0.1v0.7c0,0.1-0.1,0.1-0.2,0.1h-1.7c-0.4,0-0.5,0.1-0.5,0.3v0.1
			c0,0.2,0.1,0.3,0.4,0.4l1.2,0.4c0.7,0.3,1,0.7,1,1.4v0.1c0,1-0.7,1.4-2,1.4c-0.7,0-1.3,0-1.9-0.1c-0.1,0-0.2,0-0.2-0.1v-0.8
			c0-0.1,0.1-0.1,0.2-0.1h1.9c0.5,0,0.6-0.1,0.6-0.3v-0.1c0-0.2-0.1-0.3-0.5-0.4l-1.1-0.4c-0.6-0.2-0.9-0.7-0.9-1.4v-0.2
			c0-1,0.7-1.3,2.1-1.3C160.4,10.3,160.9,10.3,161.4,10.4z"/>
	</g>
	<g>
		<path class="st0" d="M66.6,47.2c-0.2,0.1-0.4,0.1-0.7,0.1c-0.3,0-0.7-0.1-0.9-0.2c-0.3-0.1-0.5-0.3-0.7-0.5
			c-0.2-0.2-0.3-0.5-0.4-0.7c-0.1-0.3-0.2-0.6-0.2-0.9c0-0.3,0.1-0.7,0.2-0.9c0.1-0.3,0.2-0.5,0.4-0.8c0.2-0.2,0.4-0.4,0.7-0.5
			c0.3-0.1,0.6-0.2,0.9-0.2c0.2,0,0.5,0,0.7,0.1c0.2,0.1,0.4,0.2,0.6,0.3c0.2,0.1,0.3,0.3,0.4,0.5c0.1,0.2,0.2,0.4,0.2,0.7h-1
			c-0.1-0.3-0.2-0.4-0.3-0.6c-0.2-0.1-0.4-0.2-0.6-0.2c-0.2,0-0.4,0-0.6,0.1c-0.2,0.1-0.3,0.2-0.4,0.3c-0.1,0.1-0.2,0.3-0.2,0.5
			c0,0.2-0.1,0.4-0.1,0.6c0,0.2,0,0.4,0.1,0.6c0,0.2,0.1,0.3,0.2,0.5c0.1,0.1,0.2,0.3,0.4,0.3c0.2,0.1,0.3,0.1,0.6,0.1
			c0.3,0,0.6-0.1,0.8-0.3c0.2-0.2,0.3-0.4,0.3-0.7h-1v-0.7h1.9v2.5h-0.6l-0.1-0.5C67,46.9,66.8,47.1,66.6,47.2z"/>
		<path class="st0" d="M68.7,44c0.1-0.3,0.2-0.5,0.4-0.8c0.2-0.2,0.4-0.4,0.7-0.5c0.3-0.1,0.6-0.2,0.9-0.2c0.4,0,0.7,0.1,0.9,0.2
			c0.3,0.1,0.5,0.3,0.7,0.5c0.2,0.2,0.3,0.5,0.4,0.8c0.1,0.3,0.2,0.6,0.2,0.9c0,0.3-0.1,0.6-0.2,0.9c-0.1,0.3-0.2,0.5-0.4,0.7
			c-0.2,0.2-0.4,0.4-0.7,0.5c-0.3,0.1-0.6,0.2-0.9,0.2c-0.3,0-0.7-0.1-0.9-0.2c-0.3-0.1-0.5-0.3-0.7-0.5c-0.2-0.2-0.3-0.5-0.4-0.7
			c-0.1-0.3-0.2-0.6-0.2-0.9C68.5,44.6,68.6,44.3,68.7,44z M69.6,45.5c0,0.2,0.1,0.3,0.2,0.5c0.1,0.1,0.2,0.3,0.4,0.3
			c0.2,0.1,0.3,0.1,0.6,0.1c0.2,0,0.4,0,0.6-0.1c0.2-0.1,0.3-0.2,0.4-0.3c0.1-0.1,0.2-0.3,0.2-0.5c0-0.2,0.1-0.4,0.1-0.6
			c0-0.2,0-0.4-0.1-0.6c0-0.2-0.1-0.4-0.2-0.5c-0.1-0.1-0.2-0.3-0.4-0.3c-0.2-0.1-0.3-0.1-0.6-0.1c-0.2,0-0.4,0-0.6,0.1
			c-0.2,0.1-0.3,0.2-0.4,0.3c-0.1,0.1-0.2,0.3-0.2,0.5c0,0.2-0.1,0.4-0.1,0.6C69.5,45.1,69.6,45.3,69.6,45.5z"/>
		<path class="st0" d="M75.8,42.7c0.2,0,0.4,0,0.6,0.1c0.2,0,0.3,0.1,0.5,0.2c0.1,0.1,0.2,0.2,0.3,0.3c0.1,0.1,0.1,0.3,0.1,0.5
			c0,0.2-0.1,0.4-0.2,0.6c-0.1,0.2-0.3,0.3-0.5,0.4c0.3,0.1,0.5,0.2,0.6,0.4c0.1,0.2,0.2,0.4,0.2,0.7c0,0.2,0,0.4-0.1,0.6
			c-0.1,0.2-0.2,0.3-0.4,0.4c-0.2,0.1-0.3,0.2-0.5,0.2c-0.2,0.1-0.4,0.1-0.6,0.1h-2.2v-4.5H75.8z M75.7,44.5c0.2,0,0.3,0,0.4-0.1
			c0.1-0.1,0.2-0.2,0.2-0.4c0-0.1,0-0.2-0.1-0.3c0-0.1-0.1-0.1-0.2-0.2c-0.1,0-0.1-0.1-0.2-0.1c-0.1,0-0.2,0-0.3,0h-0.9v1.1H75.7z
			 M75.7,46.4c0.1,0,0.2,0,0.3,0c0.1,0,0.2,0,0.2-0.1c0.1,0,0.1-0.1,0.2-0.2c0-0.1,0.1-0.2,0.1-0.3c0-0.2-0.1-0.4-0.2-0.5
			c-0.1-0.1-0.3-0.1-0.5-0.1h-1.1v1.2H75.7z"/>
		<path class="st0" d="M79.1,42.7v4.5h-1v-4.5H79.1z"/>
		<path class="st0" d="M83.4,42.7v0.8H81v1h2.2v0.8H81v1.1h2.4v0.8H80v-4.5H83.4z"/>
		<path class="st0" d="M86.6,42.7c0.2,0,0.4,0,0.5,0.1c0.2,0.1,0.3,0.2,0.4,0.3s0.2,0.2,0.3,0.4c0.1,0.1,0.1,0.3,0.1,0.5
			c0,0.3-0.1,0.5-0.2,0.7c-0.1,0.2-0.3,0.3-0.5,0.4v0c0.1,0,0.2,0.1,0.3,0.2c0.1,0.1,0.1,0.2,0.2,0.2c0.1,0.1,0.1,0.2,0.1,0.3
			c0,0.1,0,0.2,0,0.3c0,0.1,0,0.2,0,0.3c0,0.1,0,0.2,0,0.3c0,0.1,0,0.2,0.1,0.3c0,0.1,0.1,0.2,0.1,0.2h-1C87,47,87,46.9,86.9,46.7
			c0-0.2,0-0.4-0.1-0.6c0-0.2-0.1-0.4-0.2-0.5c-0.1-0.1-0.3-0.2-0.5-0.2h-1v1.8h-1v-4.5H86.6z M86.2,44.7c0.2,0,0.4-0.1,0.5-0.2
			c0.1-0.1,0.2-0.3,0.2-0.5c0-0.2-0.1-0.4-0.2-0.5c-0.1-0.1-0.3-0.1-0.5-0.1h-1.1v1.3H86.2z"/>
		<path class="st0" d="M89.7,42.7l1.9,3h0v-3h0.9v4.5h-1l-1.9-3h0v3h-0.9v-4.5H89.7z"/>
		<path class="st0" d="M93.4,44c0.1-0.3,0.2-0.5,0.4-0.8c0.2-0.2,0.4-0.4,0.7-0.5c0.3-0.1,0.6-0.2,0.9-0.2c0.4,0,0.7,0.1,0.9,0.2
			c0.3,0.1,0.5,0.3,0.7,0.5c0.2,0.2,0.3,0.5,0.4,0.8c0.1,0.3,0.2,0.6,0.2,0.9c0,0.3-0.1,0.6-0.2,0.9c-0.1,0.3-0.2,0.5-0.4,0.7
			c-0.2,0.2-0.4,0.4-0.7,0.5c-0.3,0.1-0.6,0.2-0.9,0.2c-0.3,0-0.7-0.1-0.9-0.2c-0.3-0.1-0.5-0.3-0.7-0.5c-0.2-0.2-0.3-0.5-0.4-0.7
			c-0.1-0.3-0.2-0.6-0.2-0.9C93.2,44.6,93.3,44.3,93.4,44z M94.3,45.5c0,0.2,0.1,0.3,0.2,0.5c0.1,0.1,0.2,0.3,0.4,0.3
			c0.2,0.1,0.3,0.1,0.6,0.1c0.2,0,0.4,0,0.6-0.1c0.2-0.1,0.3-0.2,0.4-0.3c0.1-0.1,0.2-0.3,0.2-0.5c0-0.2,0.1-0.4,0.1-0.6
			c0-0.2,0-0.4-0.1-0.6c0-0.2-0.1-0.4-0.2-0.5c-0.1-0.1-0.2-0.3-0.4-0.3c-0.2-0.1-0.3-0.1-0.6-0.1c-0.2,0-0.4,0-0.6,0.1
			c-0.2,0.1-0.3,0.2-0.4,0.3c-0.1,0.1-0.2,0.3-0.2,0.5c0,0.2-0.1,0.4-0.1,0.6C94.2,45.1,94.3,45.3,94.3,45.5z"/>
		<path class="st0" d="M103.5,42.7v0.8h-2.4v1h2.2v0.8h-2.2v1.1h2.4v0.8h-3.4v-4.5H103.5z"/>
		<path class="st0" d="M105,46.1c0.1,0.1,0.1,0.2,0.2,0.3c0.1,0.1,0.2,0.1,0.3,0.1c0.1,0,0.2,0,0.4,0c0.1,0,0.2,0,0.3,0
			c0.1,0,0.2,0,0.3-0.1c0.1,0,0.2-0.1,0.2-0.2c0.1-0.1,0.1-0.2,0.1-0.3c0-0.1,0-0.2-0.1-0.3c-0.1-0.1-0.2-0.1-0.3-0.2
			c-0.1-0.1-0.3-0.1-0.4-0.1c-0.2,0-0.3-0.1-0.5-0.1c-0.2,0-0.3-0.1-0.5-0.2c-0.2-0.1-0.3-0.1-0.4-0.2c-0.1-0.1-0.2-0.2-0.3-0.4
			c-0.1-0.1-0.1-0.3-0.1-0.5c0-0.2,0.1-0.4,0.1-0.6c0.1-0.2,0.2-0.3,0.4-0.4c0.2-0.1,0.3-0.2,0.5-0.3c0.2-0.1,0.4-0.1,0.6-0.1
			c0.2,0,0.5,0,0.7,0.1c0.2,0.1,0.4,0.1,0.6,0.3c0.2,0.1,0.3,0.3,0.4,0.5c0.1,0.2,0.1,0.4,0.1,0.7h-1c0-0.1,0-0.2-0.1-0.3
			c0-0.1-0.1-0.2-0.2-0.2c-0.1-0.1-0.2-0.1-0.3-0.1c-0.1,0-0.2,0-0.3,0c-0.1,0-0.2,0-0.2,0c-0.1,0-0.2,0-0.2,0.1
			c-0.1,0-0.1,0.1-0.2,0.2c0,0.1-0.1,0.1-0.1,0.2c0,0.1,0,0.2,0.1,0.2c0,0.1,0.1,0.1,0.2,0.2c0.1,0,0.2,0.1,0.4,0.1
			c0.2,0,0.4,0.1,0.7,0.2c0.1,0,0.2,0,0.4,0.1c0.2,0,0.3,0.1,0.4,0.2c0.1,0.1,0.3,0.2,0.4,0.4c0.1,0.2,0.2,0.4,0.2,0.6
			c0,0.2,0,0.4-0.1,0.6c-0.1,0.2-0.2,0.3-0.4,0.5c-0.2,0.1-0.4,0.2-0.6,0.3c-0.2,0.1-0.5,0.1-0.8,0.1c-0.2,0-0.5,0-0.7-0.1
			c-0.2-0.1-0.4-0.2-0.6-0.3c-0.2-0.1-0.3-0.3-0.4-0.5c-0.1-0.2-0.2-0.4-0.2-0.7h1C104.9,45.8,105,46,105,46.1z"/>
		<path class="st0" d="M108,43.5v-0.8h3.7v0.8h-1.4v3.7h-1v-3.7H108z"/>
		<path class="st0" d="M114,42.7l1.7,4.5h-1l-0.3-1h-1.7l-0.4,1h-1l1.7-4.5H114z M114,45.4l-0.6-1.7h0l-0.6,1.7H114z"/>
		<path class="st0" d="M115.1,43.5v-0.8h3.7v0.8h-1.4v3.7h-1v-3.7H115.1z"/>
		<path class="st0" d="M121,42.7l1.7,4.5h-1l-0.3-1h-1.7l-0.4,1h-1l1.7-4.5H121z M121.1,45.4l-0.6-1.7h0l-0.6,1.7H121.1z"/>
		<path class="st0" d="M124.1,42.7v3.7h2.2v0.8h-3.2v-4.5H124.1z"/>
		<path class="st0" d="M128.5,43.7c0.1-0.2,0.2-0.4,0.3-0.6c0.1-0.2,0.3-0.3,0.5-0.4c0.2-0.1,0.4-0.1,0.7-0.1c0.2,0,0.4,0,0.6,0.1
			c0.2,0.1,0.3,0.2,0.5,0.3c0.1,0.1,0.2,0.3,0.3,0.4s0.1,0.4,0.1,0.6c0,0.2,0,0.4-0.1,0.6c-0.1,0.2-0.2,0.3-0.3,0.4
			c-0.1,0.1-0.3,0.2-0.4,0.3c-0.1,0.1-0.3,0.2-0.5,0.3c-0.2,0.1-0.3,0.2-0.4,0.3c-0.1,0.1-0.3,0.2-0.4,0.4h2.1v0.8h-3.3
			c0-0.3,0-0.5,0.1-0.7c0.1-0.2,0.2-0.4,0.3-0.5c0.1-0.1,0.3-0.3,0.4-0.4c0.2-0.1,0.4-0.3,0.5-0.4c0.1-0.1,0.2-0.1,0.3-0.2
			c0.1-0.1,0.2-0.1,0.3-0.2c0.1-0.1,0.2-0.2,0.2-0.3c0.1-0.1,0.1-0.2,0.1-0.4c0-0.2-0.1-0.4-0.2-0.5c-0.1-0.1-0.3-0.2-0.5-0.2
			c-0.1,0-0.2,0-0.3,0.1c-0.1,0.1-0.2,0.1-0.2,0.2c-0.1,0.1-0.1,0.2-0.1,0.3c0,0.1,0,0.2,0,0.4h-0.9C128.4,44.2,128.5,44,128.5,43.7
			z"/>
		<path class="st0" d="M132,43.9c0.1-0.3,0.2-0.5,0.4-0.7c0.1-0.2,0.3-0.3,0.5-0.4c0.2-0.1,0.4-0.1,0.6-0.1c0.2,0,0.4,0,0.6,0.1
			c0.2,0.1,0.4,0.2,0.5,0.4c0.2,0.2,0.3,0.4,0.4,0.7c0.1,0.3,0.1,0.7,0.1,1.1c0,0.4,0,0.8-0.1,1.1c-0.1,0.3-0.2,0.5-0.4,0.7
			c-0.1,0.2-0.3,0.3-0.5,0.4c-0.2,0.1-0.4,0.1-0.6,0.1c-0.2,0-0.4,0-0.6-0.1c-0.2-0.1-0.4-0.2-0.5-0.4c-0.1-0.2-0.3-0.4-0.4-0.7
			c-0.1-0.3-0.1-0.7-0.1-1.1C131.9,44.5,131.9,44.2,132,43.9z M132.8,45.4c0,0.2,0,0.4,0.1,0.5c0,0.2,0.1,0.3,0.2,0.4
			c0.1,0.1,0.2,0.2,0.4,0.2c0.2,0,0.3-0.1,0.4-0.2c0.1-0.1,0.2-0.3,0.2-0.4c0-0.2,0.1-0.3,0.1-0.5c0-0.2,0-0.3,0-0.5
			c0-0.1,0-0.2,0-0.3c0-0.1,0-0.2,0-0.3c0-0.1,0-0.2-0.1-0.3c0-0.1-0.1-0.2-0.1-0.3c-0.1-0.1-0.1-0.2-0.2-0.2
			c-0.1-0.1-0.2-0.1-0.3-0.1c-0.1,0-0.2,0-0.3,0.1c-0.1,0.1-0.2,0.1-0.2,0.2c-0.1,0.1-0.1,0.2-0.1,0.3c0,0.1-0.1,0.2-0.1,0.3
			c0,0.1,0,0.2,0,0.3c0,0.1,0,0.2,0,0.3C132.8,45.1,132.8,45.2,132.8,45.4z"/>
		<path class="st0" d="M136.9,47.2v-2.9h-1.1v-0.7c0.2,0,0.3,0,0.5,0c0.1,0,0.3-0.1,0.4-0.1c0.1-0.1,0.2-0.2,0.3-0.3
			c0.1-0.1,0.1-0.3,0.2-0.4h0.7v4.4H136.9z"/>
		<path class="st0" d="M139.2,43.3c0.1-0.2,0.2-0.3,0.3-0.4c0.1-0.1,0.3-0.2,0.5-0.2c0.2-0.1,0.4-0.1,0.5-0.1c0.3,0,0.5,0,0.7,0.1
			c0.2,0.1,0.3,0.2,0.5,0.3c0.1,0.1,0.2,0.2,0.3,0.4c0.1,0.1,0.1,0.3,0.1,0.4c0,0.2-0.1,0.4-0.2,0.6c-0.1,0.2-0.3,0.3-0.5,0.4v0
			c0.3,0.1,0.5,0.2,0.6,0.4c0.1,0.2,0.2,0.4,0.2,0.7c0,0.2,0,0.4-0.1,0.6c-0.1,0.2-0.2,0.3-0.4,0.4s-0.3,0.2-0.5,0.3
			c-0.2,0.1-0.4,0.1-0.6,0.1c-0.2,0-0.4,0-0.6-0.1c-0.2-0.1-0.4-0.1-0.5-0.3c-0.2-0.1-0.3-0.3-0.4-0.4c-0.1-0.2-0.1-0.4-0.1-0.6
			c0-0.3,0.1-0.5,0.2-0.7c0.1-0.2,0.4-0.3,0.6-0.4v0c-0.2-0.1-0.4-0.2-0.5-0.3s-0.2-0.4-0.2-0.6C139.1,43.7,139.1,43.5,139.2,43.3z
			 M139.9,46.2c0,0.1,0.1,0.2,0.2,0.2c0.1,0.1,0.2,0.1,0.3,0.2c0.1,0,0.2,0.1,0.3,0.1c0.1,0,0.2,0,0.3-0.1c0.1,0,0.2-0.1,0.2-0.2
			c0.1-0.1,0.1-0.1,0.2-0.2c0-0.1,0.1-0.2,0.1-0.3c0-0.1,0-0.2-0.1-0.3c0-0.1-0.1-0.2-0.2-0.2c-0.1-0.1-0.1-0.1-0.2-0.1
			c-0.1,0-0.2-0.1-0.3-0.1c-0.2,0-0.4,0.1-0.6,0.2c-0.2,0.1-0.2,0.3-0.2,0.5C139.8,46,139.8,46.1,139.9,46.2z M140.1,44.4
			c0.1,0.1,0.3,0.1,0.5,0.1c0.2,0,0.4,0,0.5-0.1c0.1-0.1,0.2-0.2,0.2-0.4c0-0.1,0-0.1,0-0.2c0-0.1-0.1-0.1-0.1-0.2
			c0-0.1-0.1-0.1-0.2-0.2c-0.1,0-0.2-0.1-0.3-0.1c-0.1,0-0.2,0-0.3,0c-0.1,0-0.2,0.1-0.2,0.1c-0.1,0.1-0.1,0.1-0.1,0.2
			c0,0.1-0.1,0.2-0.1,0.3C139.9,44.1,140,44.3,140.1,44.4z"/>
		<path class="st0" d="M144.6,45c0.1-0.1,0.2-0.2,0.4-0.2c0.1,0,0.1,0,0.2,0c0.1,0,0.1,0.1,0.2,0.1c0,0,0.1,0.1,0.1,0.2
			c0,0.1,0,0.1,0,0.2c0,0.1,0,0.1,0,0.2c0,0.1-0.1,0.1-0.1,0.2c0,0.1-0.1,0.1-0.2,0.1c-0.1,0-0.1,0-0.2,0c-0.1,0-0.1,0-0.2,0
			c-0.1,0-0.1-0.1-0.2-0.1c0,0-0.1-0.1-0.1-0.2c0-0.1,0-0.1,0-0.2C144.5,45.2,144.5,45.1,144.6,45z"/>
		<path class="st0" d="M148,43.7c0.1-0.2,0.2-0.4,0.3-0.6c0.1-0.2,0.3-0.3,0.5-0.4c0.2-0.1,0.4-0.1,0.7-0.1c0.2,0,0.4,0,0.6,0.1
			c0.2,0.1,0.3,0.2,0.5,0.3c0.1,0.1,0.3,0.3,0.3,0.4c0.1,0.2,0.1,0.4,0.1,0.6c0,0.2,0,0.4-0.1,0.6c-0.1,0.2-0.2,0.3-0.3,0.4
			c-0.1,0.1-0.3,0.2-0.4,0.3c-0.2,0.1-0.3,0.2-0.5,0.3c-0.2,0.1-0.3,0.2-0.4,0.3c-0.1,0.1-0.3,0.2-0.4,0.4h2.1v0.8h-3.3
			c0-0.3,0-0.5,0.1-0.7c0.1-0.2,0.2-0.4,0.3-0.5c0.1-0.1,0.3-0.3,0.4-0.4c0.2-0.1,0.4-0.3,0.5-0.4c0.1-0.1,0.2-0.1,0.3-0.2
			c0.1-0.1,0.2-0.1,0.3-0.2c0.1-0.1,0.2-0.2,0.2-0.3c0.1-0.1,0.1-0.2,0.1-0.4c0-0.2-0.1-0.4-0.2-0.5c-0.1-0.1-0.3-0.2-0.5-0.2
			c-0.1,0-0.2,0-0.3,0.1c-0.1,0.1-0.2,0.1-0.2,0.2c-0.1,0.1-0.1,0.2-0.1,0.3c0,0.1,0,0.2,0,0.4h-0.9C147.9,44.2,147.9,44,148,43.7z"
			/>
		<path class="st0" d="M151.4,43.9c0.1-0.3,0.2-0.5,0.4-0.7c0.1-0.2,0.3-0.3,0.5-0.4c0.2-0.1,0.4-0.1,0.6-0.1c0.2,0,0.4,0,0.6,0.1
			c0.2,0.1,0.4,0.2,0.5,0.4c0.2,0.2,0.3,0.4,0.4,0.7c0.1,0.3,0.1,0.7,0.1,1.1c0,0.4,0,0.8-0.1,1.1c-0.1,0.3-0.2,0.5-0.4,0.7
			c-0.1,0.2-0.3,0.3-0.5,0.4c-0.2,0.1-0.4,0.1-0.6,0.1c-0.2,0-0.4,0-0.6-0.1c-0.2-0.1-0.4-0.2-0.5-0.4c-0.1-0.2-0.3-0.4-0.4-0.7
			c-0.1-0.3-0.1-0.7-0.1-1.1C151.3,44.5,151.3,44.2,151.4,43.9z M152.2,45.4c0,0.2,0,0.4,0.1,0.5c0,0.2,0.1,0.3,0.2,0.4
			c0.1,0.1,0.2,0.2,0.4,0.2c0.2,0,0.3-0.1,0.4-0.2c0.1-0.1,0.2-0.3,0.2-0.4c0-0.2,0.1-0.3,0.1-0.5c0-0.2,0-0.3,0-0.5
			c0-0.1,0-0.2,0-0.3c0-0.1,0-0.2,0-0.3c0-0.1,0-0.2-0.1-0.3c0-0.1-0.1-0.2-0.1-0.3c-0.1-0.1-0.1-0.2-0.2-0.2
			c-0.1-0.1-0.2-0.1-0.3-0.1c-0.1,0-0.2,0-0.3,0.1c-0.1,0.1-0.2,0.1-0.2,0.2c-0.1,0.1-0.1,0.2-0.1,0.3c0,0.1-0.1,0.2-0.1,0.3
			c0,0.1,0,0.2,0,0.3c0,0.1,0,0.2,0,0.3C152.2,45.1,152.2,45.2,152.2,45.4z"/>
		<path class="st0" d="M155,43.7c0.1-0.2,0.2-0.4,0.3-0.6c0.1-0.2,0.3-0.3,0.5-0.4c0.2-0.1,0.4-0.1,0.7-0.1c0.2,0,0.4,0,0.6,0.1
			c0.2,0.1,0.3,0.2,0.5,0.3c0.1,0.1,0.3,0.3,0.3,0.4s0.1,0.4,0.1,0.6c0,0.2,0,0.4-0.1,0.6c-0.1,0.2-0.2,0.3-0.3,0.4
			c-0.1,0.1-0.3,0.2-0.4,0.3c-0.1,0.1-0.3,0.2-0.5,0.3c-0.2,0.1-0.3,0.2-0.4,0.3c-0.1,0.1-0.3,0.2-0.4,0.4h2.1v0.8h-3.3
			c0-0.3,0-0.5,0.1-0.7c0.1-0.2,0.2-0.4,0.3-0.5c0.1-0.1,0.3-0.3,0.4-0.4c0.2-0.1,0.4-0.3,0.5-0.4c0.1-0.1,0.2-0.1,0.3-0.2
			c0.1-0.1,0.2-0.1,0.3-0.2c0.1-0.1,0.2-0.2,0.2-0.3c0.1-0.1,0.1-0.2,0.1-0.4c0-0.2-0.1-0.4-0.2-0.5c-0.1-0.1-0.3-0.2-0.5-0.2
			c-0.1,0-0.2,0-0.3,0.1c-0.1,0.1-0.2,0.1-0.2,0.2c-0.1,0.1-0.1,0.2-0.1,0.3c0,0.1,0,0.2,0,0.4h-0.9C154.9,44.2,155,44,155,43.7z"/>
		<path class="st0" d="M158.3,46.2v-0.8l1.9-2.6h0.8v2.7h0.6v0.7h-0.6v1h-0.9v-1H158.3z M160.2,43.9l-1.1,1.5h1.2L160.2,43.9
			L160.2,43.9z"/>
	</g>
	<g>
		<path class="st0" d="M185,12.6c0.2,0,0.2,0.1,0.2,0.3v12.4c0,0.2-0.1,0.3-0.2,0.3h-2.9c-0.2,0-0.2-0.1-0.2-0.3V12.9
			c0-0.2,0.1-0.3,0.2-0.3H185z"/>
		<path class="st0" d="M196.4,14.1c0.9,1,1.3,2.7,1.3,5.1c0,2.3-0.4,4-1.3,5c-0.8,1-2.3,1.5-4.2,1.5c-1.7,0-3.4-0.1-5-0.2
			c-0.2,0-0.2,0-0.2-0.2V13c0-0.1,0.1-0.2,0.2-0.2c1.6-0.1,3.3-0.2,5-0.2C194.2,12.5,195.6,13,196.4,14.1z M190.4,15.5v7.1h1.8
			c1.5,0,2-1,2-3.5c0-2.6-0.5-3.6-2-3.6H190.4z"/>
		<path class="st0" d="M208.1,12.6c0.2,0,0.3,0.1,0.3,0.2v2.5c0,0.2-0.1,0.2-0.3,0.2h-5.5v2.1h5.1c0.2,0,0.3,0.1,0.3,0.2v2.3
			c0,0.2-0.1,0.2-0.3,0.2h-5.1v2.1h5.5c0.2,0,0.3,0.1,0.3,0.2v2.5c0,0.2-0.1,0.2-0.3,0.2h-8.7c-0.2,0-0.2-0.1-0.2-0.3V12.9
			c0-0.2,0.1-0.3,0.2-0.3H208.1z"/>
		<path class="st0" d="M221.6,12.6c0.2,0,0.3,0.1,0.2,0.4l-4.6,8.2v4.1c0,0.2-0.1,0.3-0.2,0.3H214c-0.2,0-0.2-0.1-0.2-0.3v-4.1
			l-4.6-8.2c-0.1-0.2-0.1-0.4,0.2-0.4h3.3c0.2,0,0.3,0.1,0.4,0.3l2.4,5l2.4-5c0.1-0.2,0.2-0.3,0.4-0.3H221.6z"/>
	</g>
	<g>
		<path class="st0" d="M181.7,30.7C181.8,30.7,181.8,30.8,181.7,30.7l0.1,4c0,0.1,0,0.1-0.1,0.1h-0.4c-0.1,0-0.1,0-0.1-0.1v-3.9
			c0-0.1,0-0.1,0.1-0.1H181.7z"/>
		<path class="st0" d="M185.8,30.7C185.8,30.7,185.9,30.8,185.8,30.7l0.1,4c0,0.1,0,0.1-0.1,0.1h-0.3c-0.1,0-0.1,0-0.2-0.1l-2.1-3.2
			v3.2c0,0.1,0,0.1-0.1,0.1h-0.4c-0.1,0-0.1,0-0.1-0.1v-3.9c0-0.1,0-0.1,0.1-0.1h0.4c0.2,0,0.2,0,0.3,0.2l2,2.9v-3
			c0-0.1,0-0.1,0.1-0.1H185.8z"/>
		<path class="st0" d="M189,30.8C189.1,30.8,189.1,30.8,189,30.8l0.1,0.3c0,0.1,0,0.1-0.1,0.1h-1.2c-0.5,0-0.7,0.2-0.7,0.5v0.1
			c0,0.3,0.1,0.4,0.4,0.5l1.2,0.5c0.5,0.2,0.6,0.5,0.6,0.9v0.2c0,0.3-0.1,0.5-0.3,0.7c-0.1,0.1-0.2,0.1-0.3,0.2
			c-0.3,0.1-0.5,0.1-0.8,0.1c-0.4,0-0.9,0-1.3-0.1c0,0-0.1,0-0.1-0.1v-0.2c0,0,0-0.1,0.1-0.1h1.5c0.5,0,0.7-0.1,0.7-0.5v-0.1
			c0-0.3-0.1-0.4-0.4-0.6l-1.3-0.5c-0.4-0.1-0.5-0.5-0.5-0.9v-0.1c0-0.3,0.1-0.5,0.3-0.7c0.1-0.1,0.2-0.1,0.3-0.2
			c0.3-0.1,0.5-0.1,0.8-0.1C188.2,30.7,188.6,30.7,189,30.8z"/>
		<path class="st0" d="M192.7,30.7C192.7,30.7,192.8,30.8,192.7,30.7l0.1,0.4c0,0.1,0,0.1-0.1,0.1h-1.2v3.5c0,0.1,0,0.1-0.1,0.1H191
			c-0.1,0-0.1,0-0.1-0.1v-3.5h-1.2c-0.1,0-0.1,0-0.1-0.1v-0.3c0-0.1,0-0.1,0.1-0.1H192.7z"/>
		<path class="st0" d="M193.8,30.7C193.9,30.7,193.9,30.8,193.8,30.7l0.1,4c0,0.1,0,0.1-0.1,0.1h-0.4c-0.1,0-0.1,0-0.1-0.1v-3.9
			c0-0.1,0-0.1,0.1-0.1H193.8z"/>
		<path class="st0" d="M197.5,30.7C197.6,30.7,197.6,30.8,197.5,30.7l0.1,0.4c0,0.1,0,0.1-0.1,0.1h-1.2v3.5c0,0.1,0,0.1-0.1,0.1
			h-0.4c-0.1,0-0.1,0-0.1-0.1v-3.5h-1.2c-0.1,0-0.1,0-0.1-0.1v-0.3c0-0.1,0-0.1,0.1-0.1H197.5z"/>
		<path class="st0" d="M201.2,30.7C201.3,30.7,201.3,30.8,201.2,30.7l0.1,2c0,0.8-0.1,1.3-0.3,1.6c-0.3,0.3-0.6,0.4-1.3,0.4
			c-0.5,0-0.9-0.1-1.1-0.2c-0.1-0.1-0.2-0.2-0.3-0.4c-0.1-0.3-0.2-0.7-0.2-1.4v-2c0-0.1,0-0.1,0.1-0.1h0.4c0.1,0,0.1,0,0.1,0.1v2
			c0,0.4,0,0.8,0.1,1c0.1,0.4,0.4,0.6,1,0.6c0.4,0,0.7-0.1,0.8-0.3c0.1-0.2,0.2-0.6,0.2-1.3v-2c0-0.1,0-0.1,0.1-0.1H201.2z"/>
		<path class="st0" d="M204.9,30.7C205,30.7,205,30.8,204.9,30.7l0.1,0.4c0,0.1,0,0.1-0.1,0.1h-1.2v3.5c0,0.1,0,0.1-0.1,0.1h-0.4
			c-0.1,0-0.1,0-0.1-0.1v-3.5H202c-0.1,0-0.1,0-0.1-0.1v-0.3c0-0.1,0-0.1,0.1-0.1H204.9z"/>
		<path class="st0" d="M208.3,34.4c-0.3,0.3-0.6,0.4-1.3,0.4c-0.7,0-1-0.1-1.3-0.4c-0.3-0.3-0.3-0.8-0.3-1.6c0-0.8,0.1-1.3,0.3-1.6
			c0.2-0.3,0.7-0.4,1.3-0.4c0.6,0,1.1,0.1,1.3,0.4c0.2,0.3,0.3,0.8,0.3,1.6C208.7,33.6,208.6,34.1,208.3,34.4z M206.1,34
			c0.1,0.2,0.4,0.3,0.9,0.3c0.5,0,0.7-0.1,0.9-0.3c0.1-0.2,0.2-0.6,0.2-1.3c0-0.6,0-1-0.2-1.2c-0.2-0.3-0.4-0.3-0.9-0.3
			c-0.5,0-0.7,0.1-0.9,0.3c-0.2,0.3-0.2,0.6-0.2,1.2C205.9,33.4,206,33.8,206.1,34z"/>
		<path class="st0" d="M213.4,31.2c0.3,0.3,0.4,0.8,0.4,1.6c0,0.7-0.1,1.3-0.4,1.6c-0.3,0.3-0.7,0.5-1.3,0.5c-0.6,0-1.1,0-1.5,0
			c-0.1,0-0.1,0-0.1-0.1v-3.9c0-0.1,0-0.1,0.1-0.1c0.4,0,0.8,0,1.5,0C212.8,30.7,213.2,30.9,213.4,31.2z M211.1,31.2v3.2h1
			c0.4,0,0.7-0.1,0.9-0.4c0.2-0.2,0.3-0.7,0.3-1.2c0-0.6-0.1-1-0.3-1.2c-0.2-0.2-0.5-0.4-0.9-0.4H211.1z"/>
		<path class="st0" d="M217.1,30.7C217.2,30.7,217.2,30.8,217.1,30.7l0.1,0.4c0,0.1,0,0.1-0.1,0.1h-2v1.4h1.9c0.1,0,0.1,0,0.1,0.1
			V33c0,0.1,0,0.1-0.1,0.1h-1.9v1.3h2c0.1,0,0.1,0,0.1,0.1v0.3c0,0.1,0,0.1-0.1,0.1h-2.5c-0.1,0-0.1,0-0.1-0.1v-3.9
			c0-0.1,0-0.1,0.1-0.1H217.1z"/>
		<path class="st0" d="M218.3,30.7C218.4,30.7,218.4,30.8,218.3,30.7l0.1,3.6h1.9c0.1,0,0.1,0,0.1,0.1v0.3c0,0.1,0,0.1-0.1,0.1h-2.4
			c-0.1,0-0.1,0-0.1-0.1v-3.9c0-0.1,0-0.1,0.1-0.1H218.3z"/>
		<path class="st0" d="M225,31.2c0.3,0.3,0.4,0.8,0.4,1.6c0,0.7-0.1,1.3-0.4,1.6c-0.3,0.3-0.7,0.5-1.3,0.5c-0.6,0-1.1,0-1.5,0
			c-0.1,0-0.1,0-0.1-0.1v-3.9c0-0.1,0-0.1,0.1-0.1c0.4,0,0.8,0,1.5,0C224.3,30.7,224.7,30.9,225,31.2z M222.7,31.2v3.2h1
			c0.4,0,0.7-0.1,0.9-0.4c0.2-0.2,0.3-0.7,0.3-1.2c0-0.6-0.1-1-0.3-1.2c-0.2-0.2-0.5-0.4-0.9-0.4H222.7z"/>
		<path class="st0" d="M228.7,30.7C228.7,30.7,228.7,30.8,228.7,30.7l0.1,0.4c0,0.1,0,0.1-0.1,0.1h-2v1.4h1.9c0.1,0,0.1,0,0.1,0.1
			V33c0,0.1,0,0.1-0.1,0.1h-1.9v1.3h2c0.1,0,0.1,0,0.1,0.1v0.3c0,0.1,0,0.1-0.1,0.1h-2.5c-0.1,0-0.1,0-0.1-0.1v-3.9
			c0-0.1,0-0.1,0.1-0.1H228.7z"/>
		<path class="st0" d="M231.9,31c0.3,0.2,0.4,0.5,0.4,1.1c0,0.6-0.1,0.9-0.3,1.1c-0.1,0.1-0.2,0.1-0.3,0.1c-0.3,0.1-0.5,0.1-0.9,0.1
			h-0.7v1.4c0,0.1,0,0.1-0.1,0.1h-0.4c-0.1,0-0.1,0-0.1-0.1v-3.9c0-0.1,0-0.1,0.1-0.1c0.4,0,0.7,0,1.1,0
			C231.3,30.7,231.6,30.8,231.9,31z M229.9,31.2v1.6h0.6c0.1,0,0.3,0,0.3,0c0.2,0,0.4,0,0.5-0.1c0.2-0.1,0.3-0.3,0.3-0.7
			c0-0.4-0.1-0.6-0.2-0.7c-0.1-0.1-0.4-0.2-0.9-0.2H229.9z"/>
		<path class="st0" d="M235.7,34.4c-0.3,0.3-0.6,0.4-1.3,0.4c-0.7,0-1-0.1-1.3-0.4c-0.3-0.3-0.3-0.8-0.3-1.6c0-0.8,0.1-1.3,0.3-1.6
			c0.2-0.3,0.7-0.4,1.3-0.4c0.6,0,1.1,0.1,1.3,0.4c0.2,0.3,0.3,0.8,0.3,1.6C236.1,33.6,236,34.1,235.7,34.4z M233.5,34
			c0.1,0.2,0.4,0.3,0.9,0.3c0.5,0,0.7-0.1,0.9-0.3c0.1-0.2,0.2-0.6,0.2-1.3c0-0.6,0-1-0.2-1.2c-0.2-0.3-0.4-0.3-0.9-0.3
			c-0.5,0-0.7,0.1-0.9,0.3c-0.2,0.3-0.2,0.6-0.2,1.2C233.3,33.4,233.4,33.8,233.5,34z"/>
		<path class="st0" d="M239.2,31c0.3,0.2,0.4,0.5,0.4,1.1c0,0.4-0.1,0.7-0.2,0.9c-0.1,0.2-0.4,0.3-0.7,0.3l0.9,1.4
			c0,0.1,0,0.1-0.1,0.1h-0.3c-0.1,0-0.2,0-0.2-0.1l-0.9-1.4h-0.8v1.4c0,0.1,0,0.1-0.1,0.1h-0.4c-0.1,0-0.1,0-0.1-0.1v-3.9
			c0-0.1,0-0.1,0.1-0.1c0.4,0,0.7,0,1.1,0C238.6,30.7,239,30.8,239.2,31z M237.3,31.2v1.6h0.6c0.1,0,0.3,0,0.3,0
			c0.2,0,0.4,0,0.5-0.1c0.2-0.1,0.3-0.3,0.3-0.7c0-0.4-0.1-0.6-0.2-0.7c-0.1-0.1-0.4-0.2-0.9-0.2H237.3z"/>
		<path class="st0" d="M243.1,30.7C243.1,30.7,243.2,30.8,243.1,30.7l0.1,0.4c0,0.1,0,0.1-0.1,0.1h-1.2v3.5c0,0.1,0,0.1-0.1,0.1
			h-0.4c-0.1,0-0.1,0-0.1-0.1v-3.5h-1.2c-0.1,0-0.1,0-0.1-0.1v-0.3c0-0.1,0-0.1,0.1-0.1H243.1z"/>
		<path class="st0" d="M246.3,30.7C246.4,30.7,246.4,30.8,246.3,30.7l0.1,0.4c0,0.1,0,0.1-0.1,0.1h-2v1.4h1.9c0.1,0,0.1,0,0.1,0.1
			V33c0,0.1,0,0.1-0.1,0.1h-1.9v1.3h2c0.1,0,0.1,0,0.1,0.1v0.3c0,0.1,0,0.1-0.1,0.1h-2.5c-0.1,0-0.1,0-0.1-0.1v-3.9
			c0-0.1,0-0.1,0.1-0.1H246.3z"/>
		<path class="st0" d="M184.1,38c0.3,0.3,0.4,0.8,0.4,1.6c0,0.7-0.1,1.3-0.4,1.6c-0.3,0.3-0.7,0.5-1.3,0.5c-0.6,0-1.1,0-1.5,0
			c-0.1,0-0.1,0-0.1-0.1v-3.9c0-0.1,0-0.1,0.1-0.1c0.4,0,0.8,0,1.5,0C183.4,37.5,183.8,37.7,184.1,38z M181.8,38v3.2h1
			c0.4,0,0.7-0.1,0.9-0.4c0.2-0.2,0.3-0.7,0.3-1.2c0-0.6-0.1-1-0.3-1.2c-0.2-0.2-0.5-0.4-0.9-0.4H181.8z"/>
		<path class="st0" d="M187.7,37.5C187.8,37.5,187.8,37.6,187.7,37.5l0.1,0.4c0,0.1,0,0.1-0.1,0.1h-2v1.4h1.9c0.1,0,0.1,0,0.1,0.1
			v0.3c0,0.1,0,0.1-0.1,0.1h-1.9v1.3h2c0.1,0,0.1,0,0.1,0.1v0.3c0,0.1,0,0.1-0.1,0.1h-2.5c-0.1,0-0.1,0-0.1-0.1v-3.9
			c0-0.1,0-0.1,0.1-0.1H187.7z"/>
		<path class="st0" d="M189,37.5C189,37.5,189,37.6,189,37.5l0.1,3.6h1.9c0.1,0,0.1,0,0.1,0.1v0.3c0,0.1,0,0.1-0.1,0.1h-2.4
			c-0.1,0-0.1,0-0.1-0.1v-3.9c0-0.1,0-0.1,0.1-0.1H189z"/>
		<path class="st0" d="M195.4,37.5C195.4,37.5,195.5,37.6,195.4,37.5l0.1,0.4c0,0.1,0,0.1-0.1,0.1h-2v1.4h1.9c0.1,0,0.1,0,0.1,0.1
			v0.3c0,0.1,0,0.1-0.1,0.1h-1.9v1.3h2c0.1,0,0.1,0,0.1,0.1v0.3c0,0.1,0,0.1-0.1,0.1h-2.5c-0.1,0-0.1,0-0.1-0.1v-3.9
			c0-0.1,0-0.1,0.1-0.1H195.4z"/>
		<path class="st0" d="M198.5,37.6C198.6,37.6,198.6,37.6,198.5,37.6l0.1,0.3c0,0.1,0,0.1-0.1,0.1h-1.2c-0.5,0-0.7,0.2-0.7,0.5v0.1
			c0,0.3,0.1,0.4,0.4,0.5l1.2,0.5c0.5,0.2,0.6,0.5,0.6,0.9v0.2c0,0.3-0.1,0.5-0.3,0.7c-0.1,0.1-0.2,0.1-0.3,0.2
			c-0.3,0.1-0.5,0.1-0.8,0.1c-0.4,0-0.9,0-1.3-0.1c0,0-0.1,0-0.1-0.1v-0.2c0,0,0-0.1,0.1-0.1h1.5c0.5,0,0.7-0.1,0.7-0.5v-0.1
			c0-0.3-0.1-0.4-0.4-0.6l-1.3-0.5c-0.4-0.1-0.5-0.5-0.5-0.9v-0.1c0-0.3,0.1-0.5,0.3-0.7c0.1-0.1,0.2-0.1,0.3-0.2
			c0.3-0.1,0.5-0.1,0.8-0.1C197.7,37.5,198.1,37.5,198.5,37.6z"/>
		<path class="st0" d="M202.2,37.5C202.3,37.5,202.3,37.6,202.2,37.5l0.1,0.4c0,0.1,0,0.1-0.1,0.1H201v3.5c0,0.1,0,0.1-0.1,0.1h-0.4
			c-0.1,0-0.1,0-0.1-0.1V38h-1.2c-0.1,0-0.1,0-0.1-0.1v-0.3c0-0.1,0-0.1,0.1-0.1H202.2z"/>
		<path class="st0" d="M204.4,37.6c0.1,0.1,0.2,0.2,0.2,0.5l0.9,3.4c0,0.1,0,0.1-0.1,0.1h-0.4c0,0-0.1,0-0.1-0.1l-0.3-1.2h-1.6
			l-0.3,1.2c0,0.1,0,0.1-0.1,0.1h-0.4c-0.1,0-0.1,0-0.1-0.1l0.9-3.4c0.1-0.3,0.2-0.4,0.2-0.5c0.1-0.1,0.3-0.1,0.5-0.1
			C204.2,37.5,204.3,37.6,204.4,37.6z M203.7,38.3l-0.4,1.6h1.4l-0.4-1.6c0-0.1-0.1-0.2-0.1-0.2c0,0-0.1,0-0.2,0
			C203.7,38,203.7,38,203.7,38.3z"/>
		<path class="st0" d="M209,38c0.3,0.3,0.4,0.8,0.4,1.6c0,0.7-0.1,1.3-0.4,1.6c-0.3,0.3-0.7,0.5-1.3,0.5c-0.6,0-1.1,0-1.5,0
			c-0.1,0-0.1,0-0.1-0.1v-3.9c0-0.1,0-0.1,0.1-0.1c0.4,0,0.8,0,1.5,0C208.3,37.5,208.8,37.7,209,38z M206.7,38v3.2h1
			c0.4,0,0.7-0.1,0.9-0.4c0.2-0.2,0.3-0.7,0.3-1.2c0-0.6-0.1-1-0.3-1.2c-0.2-0.2-0.5-0.4-0.9-0.4H206.7z"/>
		<path class="st0" d="M213,41.2c-0.3,0.3-0.6,0.4-1.3,0.4c-0.7,0-1-0.1-1.3-0.4c-0.3-0.3-0.3-0.8-0.3-1.6c0-0.8,0.1-1.3,0.3-1.6
			c0.2-0.3,0.7-0.4,1.3-0.4c0.6,0,1.1,0.1,1.3,0.4c0.2,0.3,0.3,0.8,0.3,1.6C213.3,40.4,213.2,40.9,213,41.2z M210.8,40.8
			c0.1,0.2,0.4,0.3,0.9,0.3c0.5,0,0.7-0.1,0.9-0.3c0.1-0.2,0.2-0.6,0.2-1.3c0-0.6,0-1-0.2-1.2c-0.2-0.3-0.4-0.3-0.9-0.3
			c-0.5,0-0.7,0.1-0.9,0.3c-0.2,0.3-0.2,0.6-0.2,1.2C210.6,40.2,210.6,40.6,210.8,40.8z"/>
		<path class="st0" d="M218.1,38c0.3,0.3,0.4,0.8,0.4,1.6c0,0.7-0.1,1.3-0.4,1.6c-0.3,0.3-0.7,0.5-1.3,0.5c-0.6,0-1.1,0-1.5,0
			c-0.1,0-0.1,0-0.1-0.1v-3.9c0-0.1,0-0.1,0.1-0.1c0.4,0,0.8,0,1.5,0C217.4,37.5,217.8,37.7,218.1,38z M215.8,38v3.2h1
			c0.4,0,0.7-0.1,0.9-0.4c0.2-0.2,0.3-0.7,0.3-1.2c0-0.6-0.1-1-0.3-1.2c-0.2-0.2-0.5-0.4-0.9-0.4H215.8z"/>
		<path class="st0" d="M221.7,37.5C221.8,37.5,221.8,37.6,221.7,37.5l0.1,0.4c0,0.1,0,0.1-0.1,0.1h-2v1.4h1.9c0.1,0,0.1,0,0.1,0.1
			v0.3c0,0.1,0,0.1-0.1,0.1h-1.9v1.3h2c0.1,0,0.1,0,0.1,0.1v0.3c0,0.1,0,0.1-0.1,0.1h-2.5c-0.1,0-0.1,0-0.1-0.1v-3.9
			c0-0.1,0-0.1,0.1-0.1H221.7z"/>
		<path class="st0" d="M226.7,37.5c0.1,0,0.1,0,0.1,0.1l-1.5,2.7v1.2c0,0.1,0,0.1-0.1,0.1h-0.4c-0.1,0-0.1,0-0.1-0.1v-1.2l-1.5-2.7
			c0-0.1,0-0.1,0.1-0.1h0.4c0.1,0,0.1,0,0.1,0.1l1.1,2.1l1.1-2.1c0-0.1,0.1-0.1,0.1-0.1H226.7z"/>
		<path class="st0" d="M230.4,37.5C230.5,37.5,230.5,37.6,230.4,37.5l0.1,2c0,0.8-0.1,1.3-0.3,1.6c-0.3,0.3-0.6,0.4-1.3,0.4
			c-0.5,0-0.9-0.1-1.1-0.2c-0.1-0.1-0.2-0.2-0.3-0.4c-0.1-0.3-0.2-0.7-0.2-1.4v-2c0-0.1,0-0.1,0.1-0.1h0.4c0.1,0,0.1,0,0.1,0.1v2
			c0,0.4,0,0.8,0.1,1c0.1,0.4,0.4,0.6,1,0.6c0.4,0,0.7-0.1,0.8-0.3c0.1-0.2,0.2-0.6,0.2-1.3v-2c0-0.1,0-0.1,0.1-0.1H230.4z"/>
		<path class="st0" d="M233.8,37.6C233.9,37.6,233.9,37.6,233.8,37.6l0.1,0.3c0,0.1,0,0.1-0.1,0.1h-1c-0.5,0-0.7,0.1-0.9,0.3
			c-0.1,0.2-0.2,0.6-0.2,1.3c0,0.6,0.1,1,0.2,1.3c0.1,0.2,0.4,0.3,0.9,0.3h1c0.1,0,0.1,0,0.1,0.1v0.3c0,0.1,0,0.1-0.1,0.1
			c-0.2,0-0.6,0-1,0c-0.7,0-1-0.1-1.3-0.4c-0.3-0.3-0.3-0.8-0.3-1.6c0-0.8,0.1-1.3,0.3-1.6c0.3-0.3,0.6-0.4,1.3-0.4
			C233.2,37.5,233.6,37.5,233.8,37.6z"/>
		<path class="st0" d="M236.6,37.6c0.1,0.1,0.2,0.2,0.2,0.5l0.9,3.4c0,0.1,0,0.1-0.1,0.1h-0.4c0,0-0.1,0-0.1-0.1l-0.3-1.2h-1.6
			l-0.3,1.2c0,0.1,0,0.1-0.1,0.1h-0.4c-0.1,0-0.1,0-0.1-0.1l0.9-3.4c0.1-0.3,0.2-0.4,0.2-0.5c0.1-0.1,0.3-0.1,0.5-0.1
			C236.3,37.5,236.5,37.6,236.6,37.6z M235.8,38.3l-0.4,1.6h1.4l-0.4-1.6c0-0.1-0.1-0.2-0.1-0.2c0,0-0.1,0-0.2,0
			C235.9,38,235.9,38,235.8,38.3z"/>
		<path class="st0" d="M240.8,37.5C240.8,37.5,240.8,37.6,240.8,37.5l0.1,0.4c0,0.1,0,0.1-0.1,0.1h-1.2v3.5c0,0.1,0,0.1-0.1,0.1
			h-0.4c-0.1,0-0.1,0-0.1-0.1V38h-1.2c-0.1,0-0.1,0-0.1-0.1v-0.3c0-0.1,0-0.1,0.1-0.1H240.8z"/>
		<path class="st0" d="M243,37.6c0.1,0.1,0.2,0.2,0.2,0.5l0.9,3.4c0,0.1,0,0.1-0.1,0.1h-0.4c0,0-0.1,0-0.1-0.1l-0.3-1.2h-1.6
			l-0.3,1.2c0,0.1,0,0.1-0.1,0.1h-0.4c-0.1,0-0.1,0-0.1-0.1l0.9-3.4c0.1-0.3,0.2-0.4,0.2-0.5c0.1-0.1,0.3-0.1,0.5-0.1
			C242.7,37.5,242.9,37.6,243,37.6z M242.2,38.3l-0.4,1.6h1.4l-0.4-1.6c0-0.1-0.1-0.2-0.1-0.2c0,0-0.1,0-0.2,0
			C242.3,38,242.3,38,242.2,38.3z M243.2,36.5C243.2,36.5,243.2,36.5,243.2,36.5L243.2,36.5c0.1,0.1,0,0.1,0,0.2l-0.8,0.7
			c0,0,0,0-0.1,0l-0.1-0.1c0,0,0,0,0-0.1l0.4-0.6c0,0,0,0,0.1,0H243.2z"/>
		<path class="st0" d="M247.9,37.5C248,37.5,248,37.6,247.9,37.5l0.1,4c0,0.1,0,0.1-0.1,0.1h-0.3c-0.1,0-0.1,0-0.2-0.1l-2.1-3.2v3.2
			c0,0.1,0,0.1-0.1,0.1h-0.4c-0.1,0-0.1,0-0.1-0.1v-3.9c0-0.1,0-0.1,0.1-0.1h0.4c0.2,0,0.2,0,0.3,0.2l2,3v-3c0-0.1,0-0.1,0.1-0.1
			H247.9z"/>
	</g>
</g>
</svg>
